<?xml version="1.0" encoding="utf-8"?>
<!-- Generator: Adobe Illustrator 21.0.0, SVG Export Plug-In . SVG Version: 6.00 Build 0)  -->
<svg version="1.1" id="Layer_1" xmlns="http://www.w3.org/2000/svg" xmlns:xlink="http://www.w3.org/1999/xlink" x="0px" y="0px"
	 viewBox="0 0 400 400" style="enable-background:new 0 0 400 400;" xml:space="preserve">
<style type="text/css">
	.st0{fill:#364E57;}
	.st1{fill:#435A65;}
	.st2{fill:#FFFFFF;}
	.st3{fill:#293944;}
</style>
<g>
	<g>
		<path class="st0" d="M161,124.6c-6.7-1.2-9-5.9-9.8-8.8c-0.4-1.4-5.8-1.4-6.2,0c-0.8,3-3.1,7.6-9.8,8.8c0,0-3.8,16.2,12.2,16.2
			h1.4C164.8,140.8,161,124.6,161,124.6z"/>
		<ellipse class="st1" cx="148.1" cy="115.9" rx="3.2" ry="1.6"/>
	</g>
	<rect x="144.3" y="236.3" class="st0" width="4.7" height="37.3"/>
	<path class="st2" d="M178.7,195.8c-2.5-22.2-23-30.9-23-30.9l11.5-19.7c-4.1-11.8,4.4-18.7,4.4-18.7l-10.9-2
		c-1.1,6.4-7.2,11.5-12.8,11.5c-5.6,0-12.5-6.4-12.6-11.5l-9.9,2c0,0,8.1,7.9,4.4,18.7l10.4,19.7c0,0-20.5,8.7-23,30.9
		c-2.5,22.2-8.9,44-18.1,52.2c0,0,13.6,8.1,43.7,9.6c0,0,3.5,0.2,5.1,0.2c1.7,0,5.1-0.2,5.1-0.2c30.1-1.6,43.7-9.6,43.7-9.6
		C187.5,239.8,181.2,218,178.7,195.8z"/>
	<path class="st0" d="M126.2,275.8c0-4,9.2-7.3,20.4-7.3c11.3,0,20.4,3.3,20.4,7.3H126.2z"/>
</g>
<g>
	<path class="st2" d="M255.5,112.3c0,0-6.6-1.5-6.6-12.1H246h-3.2h-0.5h-3.4h-2.7c-0.4,10.6-6.2,12.1-6.2,12.1
		c-9.1,4.5,12.3,44,12.3,44h0.5C242.8,156.3,264.6,116.8,255.5,112.3z"/>
	<polygon class="st0" points="270.5,280.1 263.5,165.2 243.9,165.7 242.8,165.7 223.1,165.2 216.2,280.1 237.1,282.2 243.3,203.2 
		249.6,282.2 	"/>
	<polygon class="st3" points="264.9,187.1 254.5,195.8 260.4,281.1 270.5,280.1 	"/>
	<path class="st3" d="M237.1,282.2l5.9-74.3c-0.2-11.2-0.3-18.9-0.3-18.9l-8.6,1.4l-7.1,90.8L237.1,282.2z"/>
	<path class="st3" d="M273.3,201.8l12.6-1.6c0,0-7-74.5-9.8-79.1c-1.5-2.4-3.1-3.4-4.3-3.7c-0.4-0.1-15.1-4.4-15.1-4.4
		s-6.1,20.7-14.4,40l0.9,54.2c0,0-0.9,7.4,10.1,7c11.1-0.4,14.7-0.4,14.7-0.4s-2.8-27.5-3.2-45.9c-0.1-5.4,0.4-11.8,1.1-18.3
		L273.3,201.8z"/>
	<path class="st0" d="M255.5,112.3l6.7,2.5c0,0-4.2,46-19.8,45.6c-0.2,0,0-8,0-8L255.5,112.3z"/>
	<path class="st0" d="M212.2,201.8l-12.6-1.6c0,0,7-74.5,9.8-79.1c1.5-2.4,3.1-3.4,4.3-3.7c0.4-0.1,15.1-4.4,15.1-4.4
		s6.1,20.7,14.4,40l0,54.5c0,0,0,7.1-11.1,6.6c-11.1-0.4-14.7-0.4-14.7-0.4s2.8-27.5,3.2-45.9c0.1-5.4-0.4-11.8-1.1-18.3
		L212.2,201.8z"/>
	<path class="st3" d="M230,112.3l-6.7,2.5c0,0,4.2,46,19.8,45.6c0.2,0,0-8,0-8L230,112.3z"/>
</g>
</svg>
